<svg xmlns="http://www.w3.org/2000/svg" viewBox="0 0 242.12 85.04"><defs><style>.cls-1{fill:#231f20;}</style></defs><title>logo</title><g id="Layer_2" data-name="Layer 2"><g id="Layer_1-2" data-name="Layer 1"><path class="cls-1" d="M30.8,26.09a85.32,85.32,0,0,1,2.57-12.46C35.83,5.22,39.34,0,42.52,0s6.68,5.21,9.14,13.59a94.62,94.62,0,0,0-9.08,6.3l-.43.31-.44.35-.5.4c-1.33,1.06-2.74,2.25-4.32,3.64-.43.37-.87.77-1.32,1.17-.6,0-1.19.06-1.77.11C32.78,25.93,31.78,26,30.8,26.09Z"/><path class="cls-1" d="M11.34,15.92a4.72,4.72,0,0,1,1.12-3.46c2.24-2.25,8.39-1,16.07,3.14a96.19,96.19,0,0,0-2,10.87h0l-.07.53-.13,1.19c-.25,2.28-.45,4.76-.59,7.39-1.2,1.33-2.24,2.52-3.15,3.61a85.4,85.4,0,0,1-7-10.62C12.86,23.51,11.34,19,11.34,15.92Z"/><path class="cls-1" d="M0,42.52c0-3.18,5.21-6.68,13.59-9.14a94.33,94.33,0,0,0,6.3,9.08h0l.32.43.75.93c1.45,1.83,3.07,3.72,4.81,5.65.09,1.64.2,3.24.33,4.77a85.32,85.32,0,0,1-12.46-2.57C5.22,49.21,0,45.7,0,42.52Z"/><path class="cls-1" d="M11.34,69.12c0-3.09,1.51-7.57,4.26-12.61a97.13,97.13,0,0,0,10.87,2h0l.53.07,1.17.14.68.1v0l1.28.13c1.29.12,2.65.23,4.05.31l1.4.08c1.16,1,2.37,2.11,3.61,3.14a84.51,84.51,0,0,1-10.62,7c-7.7,4.19-13.88,5.4-16.11,3.17A4.79,4.79,0,0,1,11.34,69.12Z"/><path class="cls-1" d="M33.38,71.46a95.34,95.34,0,0,0,9.08-6.31h0l.43-.32.93-.75c1.82-1.45,3.71-3.07,5.64-4.81l1.4-.07,2-.15,1.33-.1a84.9,84.9,0,0,1-2.57,12.45C49.21,79.82,45.7,85,42.52,85S35.84,79.84,33.38,71.46Z"/><path class="cls-1" d="M56.51,69.45a94.77,94.77,0,0,0,2-10.88h0l.07-.54.13-1.18c.26-2.27.46-4.75.59-7.39,1.13-1.24,2.18-2.45,3.14-3.61a83.42,83.42,0,0,1,7,10.62C72.18,61.53,73.7,66,73.7,69.12a4.8,4.8,0,0,1-1.12,3.48C70.35,74.83,64.19,73.62,56.51,69.45Z"/><path class="cls-1" d="M59,30.8a84.56,84.56,0,0,1,12.46,2.57c8.41,2.46,13.63,6,13.63,9.15s-5.21,6.68-13.59,9.14a92.32,92.32,0,0,0-6.3-9.08h0l-.33-.42-.74-.93c-1.43-1.79-3.05-3.69-4.81-5.64C59.2,33.93,59.09,32.33,59,30.8Z"/><path class="cls-1" d="M45.85,22.62a84.21,84.21,0,0,1,10.62-7c7.7-4.2,13.87-5.41,16.11-3.16a4.72,4.72,0,0,1,1.12,3.46c0,3.09-1.51,7.57-4.25,12.61a95.57,95.57,0,0,0-10.88-2h0L58,26.48l-1.18-.13c-1.69-.19-3.58-.35-5.62-.48-.58-.05-1.16-.08-1.77-.11C48.2,24.63,47,23.57,45.85,22.62Z"/><path class="cls-1" d="M149,49.06q0,8-5,11.8t-13,3.8a46.44,46.44,0,0,1-18.25-3.78l2.1-11.61q9.32,4.62,16.35,4.62,4.59,0,4.59-3.08a3.14,3.14,0,0,0-1.46-2.6A28.45,28.45,0,0,0,128,45.47q-7.78-2.8-11-5.95t-3.25-9.23q0-7.07,4.88-10.92A19.26,19.26,0,0,1,131,15.51a37.14,37.14,0,0,1,15.94,3.4l-2.11,11.52q-7.58-4.14-13.56-4.14Q127,26.29,127,29a2.87,2.87,0,0,0,1.29,2.41,22.7,22.7,0,0,0,5.27,2.27q8.43,2.8,11.93,6.21A12.27,12.27,0,0,1,149,49.06Z"/><path class="cls-1" d="M186.76,46q0,9.36-4,13.88a12.91,12.91,0,0,1-10,4.53A23.15,23.15,0,0,1,166,63.33v11.8l-12.4,1.94V29.66h11.15l.68,4.36Q170,29,174.86,29a10.32,10.32,0,0,1,8.67,4.28Q186.76,37.53,186.76,46Zm-12.41.91q0-6.84-4-6.84-1.93,0-4.32,2.5V54.13a9.86,9.86,0,0,0,3.4.71Q174.36,54.84,174.35,46.89Z"/><path class="cls-1" d="M204.87,20.29a5.18,5.18,0,0,1-1.94,4.24,8.47,8.47,0,0,1-9.88,0,5.16,5.16,0,0,1-2-4.24,5.21,5.21,0,0,1,2-4.26,7.56,7.56,0,0,1,4.92-1.6A7.64,7.64,0,0,1,202.92,16,5.22,5.22,0,0,1,204.87,20.29Zm-.68,43.83h-12.4V29.65h12.4Z"/><path class="cls-1" d="M242.12,64.12h-12.4V43.32c0-2.31-1-3.48-2.86-3.51-1.24,0-2.6.71-4.08,2.11v22.2h-12.4V29.65h11.15l.74,4.59c3.45-3.53,6.83-5.29,10.17-5.27q4.73,0,7.2,2.82c1.66,1.89,2.48,4.56,2.48,8Z"/></g></g></svg>